<?xml version="1.0" standalone="no"?>
<!DOCTYPE svg PUBLIC "-//W3C//DTD SVG 20010904//EN"
 "http://www.w3.org/TR/2001/REC-SVG-20010904/DTD/svg10.dtd">
<svg version="1.0" xmlns="http://www.w3.org/2000/svg"
 width="296.000000pt" height="296.000000pt" viewBox="0 0 296.000000 296.000000"
 preserveAspectRatio="xMidYMid meet">
<metadata>
Created by potrace 1.11, written by Peter Selinger 2001-2013
</metadata>
<g transform="translate(0.000000,296.000000) scale(0.100000,-0.100000)"
fill="#000000" stroke="none">
<path d="M56 2488 c-63 -186 -8 -378 143 -501 86 -70 237 -137 376 -166 92
-19 119 -22 275 -28 147 -5 178 -12 163 -36 -6 -9 -316 -4 -358 6 -18 4 -55
11 -125 24 -156 28 -331 103 -420 180 -50 45 -51 45 -45 17 68 -305 222 -422
564 -426 83 -1 256 9 301 17 85 15 117 16 129 1 11 -13 10 -17 -10 -25 -13 -4
-49 -12 -79 -16 -30 -4 -63 -9 -74 -11 -133 -25 -407 -24 -529 1 -25 5 -27 4
-18 -14 27 -49 122 -132 185 -162 123 -58 257 -46 479 41 84 33 99 36 104 23
8 -19 -11 -34 -98 -78 -85 -43 -157 -64 -249 -71 -41 -3 -76 -7 -78 -8 -1 -2
16 -15 40 -28 131 -76 260 -65 389 34 32 25 51 33 60 27 11 -7 3 -20 -36 -57
-27 -27 -70 -62 -94 -77 -36 -25 -40 -30 -25 -36 40 -15 113 -1 169 31 30 17
60 30 66 28 6 -2 -8 -25 -31 -51 -33 -37 -51 -48 -82 -54 -40 -6 -40 -6 -19
-22 13 -10 20 -23 16 -32 -7 -19 -62 -52 -74 -44 -5 3 -17 27 -26 55 -21 64
-64 81 -78 31 -3 -14 -1 -18 9 -14 8 3 14 1 14 -5 0 -6 12 -25 28 -43 l27 -33
-36 22 c-46 28 -69 21 -68 -22 0 -17 3 -26 5 -20 4 9 14 9 39 1 34 -10 34 -11
12 -21 -24 -13 -32 -43 -17 -66 8 -13 11 -13 22 0 7 8 25 26 40 39 l27 23 35
-22 c23 -14 36 -29 36 -43 l1 -22 18 22 c23 27 17 57 -11 70 -21 9 -20 10 8
36 l28 27 22 -27 22 -27 6 40 c4 21 10 44 14 50 12 17 73 57 79 51 8 -8 -59
-124 -112 -194 -73 -98 -177 -171 -271 -189 -21 -5 -42 -9 -46 -10 -5 -1 -16
-2 -25 -3 -30 -2 18 -29 78 -44 103 -27 193 1 259 80 34 42 81 137 125 253 30
80 42 100 56 100 11 0 6 -23 -32 -147 -56 -183 -103 -267 -176 -313 -48 -31
-47 -33 11 -49 92 -25 163 24 192 131 15 56 16 64 34 203 6 50 13 101 15 115
2 14 4 33 4 44 1 14 4 16 14 7 8 -6 13 -28 12 -53 -2 -43 -15 -169 -20 -198
-30 -165 -24 -290 16 -326 18 -16 20 -16 38 0 31 28 40 67 36 158 -3 75 -6
103 -21 188 -12 70 -16 230 -6 230 16 0 19 -9 26 -85 4 -39 8 -81 11 -95 2
-14 7 -47 10 -74 14 -123 47 -201 98 -231 35 -21 113 -23 148 -5 21 12 20 12
-12 32 -86 52 -128 130 -199 365 -25 87 -27 103 -9 103 4 0 26 -48 50 -107 80
-204 128 -276 210 -319 43 -22 131 -22 196 0 67 22 74 33 26 41 -137 23 -237
89 -331 218 -38 53 -107 177 -98 177 3 0 21 -10 41 -21 38 -23 55 -52 55 -95
0 -31 11 -31 30 1 l15 24 29 -22 29 -23 -27 -27 c-22 -22 -25 -30 -16 -47 6
-11 16 -20 22 -20 6 0 8 3 5 7 -4 3 9 17 29 31 38 25 37 26 101 -12 13 -7 20
-16 16 -19 -3 -4 -2 -7 4 -7 6 0 16 6 22 14 16 19 -1 54 -31 65 -17 6 -15 9
16 18 20 6 36 7 36 2 0 -17 18 -9 23 10 12 49 -39 67 -82 29 l-25 -23 17 25
c10 14 20 33 24 43 4 13 9 15 19 6 11 -9 14 -7 14 9 0 11 -7 25 -15 32 -25 21
-52 2 -71 -52 -11 -28 -24 -53 -29 -55 -6 -2 -26 10 -45 26 l-35 29 25 21 25
20 -23 1 c-34 0 -74 24 -105 64 -36 46 -26 64 17 31 47 -36 114 -57 160 -51
22 3 41 8 43 10 3 2 -15 18 -39 34 -73 51 -131 110 -124 127 4 12 17 7 66 -29
72 -53 142 -78 214 -77 58 0 146 29 186 61 l25 20 -40 1 c-121 5 -208 28 -315
86 -81 44 -86 49 -72 66 10 12 29 7 119 -29 232 -93 385 -94 518 -3 44 29 106
93 124 126 10 20 9 21 -17 17 -112 -21 -338 -25 -452 -9 -19 2 -57 7 -85 11
-67 8 -147 23 -153 29 -2 2 -2 11 2 20 6 17 4 17 136 0 288 -38 529 -14 650
63 104 66 173 182 205 341 l7 34 -28 -28 c-85 -81 -226 -147 -407 -190 -135
-32 -163 -35 -354 -42 -161 -5 -163 -5 -163 16 0 20 5 21 118 22 64 0 124 2
132 3 8 2 44 6 80 10 283 29 529 166 612 342 42 91 50 155 33 274 -13 85 -21
88 -70 23 -191 -255 -469 -402 -878 -468 -102 -16 -140 -30 -169 -62 -27 -29
-36 -91 -23 -148 20 -88 2 -157 -47 -184 -62 -35 -115 26 -125 146 -3 37 -11
79 -18 92 -12 23 -10 27 26 53 43 31 52 54 17 44 -69 -21 -128 -35 -168 -41
-52 -7 -100 -24 -100 -36 0 -4 -10 -11 -22 -15 -35 -10 -58 -34 -58 -60 0 -28
16 -40 35 -24 21 18 73 15 95 -5 37 -34 18 -114 -35 -149 -35 -23 -105 -23
-144 0 -17 10 -39 35 -49 55 -18 36 -19 58 -6 151 8 60 1 88 -33 123 -36 35
-53 41 -171 61 -413 68 -665 203 -875 467 -29 36 -49 54 -51 45z m1396 -668
c-13 -10 -30 -16 -37 -13 -22 8 -18 21 8 26 47 9 52 7 29 -13z"/>
<path d="M652 1026 l-12 -46 -52 0 -52 0 41 -30 42 -31 -15 -41 c-8 -22 -14
-42 -14 -44 0 -3 18 7 40 22 l39 26 28 -19 c51 -36 52 -36 37 14 -12 39 -12
48 -1 55 8 4 25 16 38 27 l24 20 -48 1 c-36 0 -49 4 -53 18 -3 9 -11 30 -17
45 l-12 28 -13 -45z"/>
<path d="M2297 1063 c-2 -5 -10 -25 -16 -45 -12 -37 -14 -38 -59 -38 l-47 0
37 -33 37 -32 -14 -40 c-8 -21 -13 -40 -12 -42 2 -1 20 9 40 24 l37 26 28 -19
c49 -36 51 -37 42 -7 -4 16 -11 36 -15 45 -5 12 5 25 36 47 l42 31 -51 0 c-49
0 -51 1 -63 38 -7 20 -12 40 -11 45 1 4 0 7 -2 7 -3 0 -7 -3 -9 -7z"/>
<path d="M2790 1025 l-13 -45 -50 0 -51 0 42 -31 c32 -24 40 -34 33 -47 -4 -9
-11 -30 -15 -46 l-7 -29 35 26 c19 15 38 27 42 27 4 0 23 -12 42 -27 l35 -26
-7 26 c-17 74 -18 71 21 97 l38 25 -49 5 c-47 5 -50 7 -63 44 -7 22 -15 41
-17 43 -2 2 -9 -17 -16 -42z"/>
<path d="M144 1023 c-9 -37 -11 -38 -59 -43 l-50 -5 35 -24 c19 -14 37 -26 39
-27 2 -2 -4 -24 -12 -49 -17 -48 -16 -48 36 -12 l28 19 39 -26 c22 -15 40 -25
40 -22 0 2 -7 22 -15 45 l-14 41 41 30 41 30 -51 0 c-51 0 -51 0 -63 40 -7 22
-15 40 -19 40 -3 0 -11 -17 -16 -37z"/>
</g>
</svg>
